<svg width="147" height="85" viewBox="0 0 147 85" fill="none" xmlns="http://www.w3.org/2000/svg">
<path d="M30.2036 59.25C30.2036 46.5475 40.5011 36.25 53.2036 36.25H103.204C115.906 36.25 126.204 46.5475 126.204 59.25C126.204 71.9525 115.906 82.25 103.204 82.25H53.2036C40.5011 82.25 30.2036 71.9525 30.2036 59.25Z" stroke="#001011" stroke-width="4"/>
<path d="M61.6674 19.9829C70.7082 10.6309 85.699 10.6309 94.7398 19.9829L103.027 28.555C103.64 29.1896 103.19 30.25 102.308 30.25H54.0995C53.2167 30.25 52.767 29.1896 53.3805 28.555L61.6674 19.9829Z" fill="#D9D9D9" fill-opacity="0.01" stroke="#001011" stroke-width="4"/>
<circle cx="78.2036" cy="8.25" r="2.5" stroke="#001011" stroke-width="5"/>
<path d="M30.23 57.4693L30.1906 57.6762L30.2097 57.8858L30.8978 65.4547L8.37413 48.0144L8.37413 38.4862L32.0008 48.1731L30.23 57.4693Z" fill="#D9D9D9" fill-opacity="0.03" stroke="#001011" stroke-width="3"/>
<path d="M122.204 46.25C122.204 37.5983 137.312 43.432 139.919 45.9017C142.533 48.3789 144.238 51.9569 144.596 55.8636C144.954 59.7704 143.927 63.5986 141.806 66.5095C139.692 69.4114 126.916 69.4558 123.704 69.75" stroke="#001011" stroke-width="4"/>
<line x1="49.2036" y1="70.75" x2="106.204" y2="70.75" stroke="#001011" stroke-width="3"/>
</svg>
