<svg width="44" height="46" viewBox="0 0 44 46" fill="none" xmlns="http://www.w3.org/2000/svg">
<path d="M30.451 20.0254V10.2959C30.451 8.14551 29.5607 6.08322 27.976 4.56269C26.3913 3.04215 24.2421 2.18793 22.001 2.18793C19.7599 2.18793 17.6106 3.04215 16.026 4.56269C14.4413 6.08322 13.551 8.14551 13.551 10.2959V20.0254M39.1398 15.7163L41.9857 41.6617C42.1435 43.0995 40.9718 44.3492 39.4643 44.3492H4.53771C4.18215 44.3496 3.83049 44.2782 3.50557 44.1396C3.18065 44.0011 2.88974 43.7985 2.65173 43.5451C2.41372 43.2916 2.23394 42.993 2.12407 42.6685C2.0142 42.344 1.97669 42.001 2.01398 41.6617L4.86219 15.7163C4.92789 15.1186 5.22188 14.5654 5.68747 14.1634C6.15307 13.7613 6.7573 13.5389 7.38366 13.539H36.6183C37.9162 13.539 39.0046 14.4796 39.1398 15.7163ZM14.396 20.0254C14.396 20.2404 14.307 20.4467 14.1485 20.5987C13.9901 20.7508 13.7751 20.8362 13.551 20.8362C13.3269 20.8362 13.112 20.7508 12.9535 20.5987C12.795 20.4467 12.706 20.2404 12.706 20.0254C12.706 19.8104 12.795 19.6041 12.9535 19.4521C13.112 19.3 13.3269 19.2146 13.551 19.2146C13.7751 19.2146 13.9901 19.3 14.1485 19.4521C14.307 19.6041 14.396 19.8104 14.396 20.0254ZM31.296 20.0254C31.296 20.2404 31.2069 20.4467 31.0485 20.5987C30.89 20.7508 30.6751 20.8362 30.451 20.8362C30.2269 20.8362 30.0119 20.7508 29.8535 20.5987C29.695 20.4467 29.606 20.2404 29.606 20.0254C29.606 19.8104 29.695 19.6041 29.8535 19.4521C30.0119 19.3 30.2269 19.2146 30.451 19.2146C30.6751 19.2146 30.89 19.3 31.0485 19.4521C31.2069 19.6041 31.296 19.8104 31.296 20.0254Z" stroke="black" stroke-width="3" stroke-linecap="round" stroke-linejoin="round"/>
</svg>
